<?xml version="1.0" encoding="UTF-8"?>
<svg width="128" height="128" viewBox="0 0 128 128" xmlns="http://www.w3.org/2000/svg">
  <defs>
    <filter id="s"><feDropShadow dx="0" dy="4" stdDeviation="6" flood-color="#000" flood-opacity="0.18"/></filter>
    <radialGradient id="g" cx="50%" cy="50%" r="60%">
      <stop offset="0" stop-color="#ffe1ec"/>
      <stop offset="1" stop-color="#ff9ec4"/>
    </radialGradient>
  </defs>
  <g filter="url(#s)">
    <circle cx="64" cy="64" r="50" fill="url(#g)" stroke="#ff6aa3" stroke-width="3"/>
    <path d="M88 44c-10 2-16 10-20 18-6-9-16-14-28-14 5 9 6 18 1 28 10 4 20 3 29-2 8 7 18 9 29 5-8-6-10-14-8-23 1-5 0-9-3-12z" fill="#ff4f99" opacity="0.85"/>
    <path d="M56 42c-3 4-5 8-6 12 6-2 12-1 18 2-2-6-6-10-12-14z" fill="#fff" opacity="0.7"/>
  </g>
</svg>
