<?xml version="1.0" encoding="UTF-8"?>
<svg width="256" height="256" viewBox="0 0 256 256" xmlns="http://www.w3.org/2000/svg">
  <!-- Glass disc -->
  <circle cx="128" cy="128" r="104" fill="#F5A9B8" fill-opacity="0.85"/>
  <circle cx="128" cy="96" r="64" fill="#FFFFFF" opacity="0.15"/>
  <!-- Simple gear -->
  <g fill="#2E2A2E">
    <circle cx="128" cy="128" r="30"/>
    <rect x="120" y="56" width="16" height="32" rx="6"/>
    <rect x="120" y="168" width="16" height="32" rx="6"/>
    <rect x="56" y="120" width="32" height="16" rx="6"/>
    <rect x="168" y="120" width="32" height="16" rx="6"/>
    <rect x="84" y="76" width="16" height="28" rx="5" transform="rotate(-45 92 90)"/>
    <rect x="156" y="152" width="16" height="28" rx="5" transform="rotate(-45 164 166)"/>
    <rect x="76" y="156" width="28" height="16" rx="5" transform="rotate(45 90 164)"/>
    <rect x="152" y="84" width="28" height="16" rx="5" transform="rotate(45 166 92)"/>
  </g>
  <!-- Border -->
  <circle cx="128" cy="128" r="104" fill="none" stroke="#FF69B4" stroke-width="6" opacity="0.9"/>
</svg>
